<svg width="91" height="73" viewBox="0 0 91 73" fill="none" xmlns="http://www.w3.org/2000/svg">
<g clip-path="url(#clip0)">
<path d="M29.575 50.1875C29.2352 50.1875 28.8953 50.2374 28.5711 50.3429C26.7284 50.9432 24.7904 51.3281 22.75 51.3281C20.7096 51.3281 18.7716 50.9432 16.9274 50.3429C16.6032 50.2374 16.2648 50.1875 15.925 50.1875C7.10083 50.1875 -0.0469363 57.3848 -1.44397e-05 66.2446C0.0198918 69.9887 3.08972 73 6.82499 73H38.675C42.4102 73 45.4801 69.9887 45.5 66.2446C45.5469 57.3848 38.3991 50.1875 29.575 50.1875ZM22.75 45.625C30.2888 45.625 36.4 39.497 36.4 31.9375C36.4 24.378 30.2888 18.25 22.75 18.25C15.2112 18.25 9.09999 24.378 9.09999 31.9375C9.09999 39.497 15.2112 45.625 22.75 45.625ZM84.175 0H29.575C25.8113 0 22.75 3.17236 22.75 7.07045V13.6875C26.08 13.6875 29.1626 14.6542 31.85 16.2254V9.125H81.9V50.1875H72.8V41.0625H54.6V50.1875H43.7596C46.4754 52.5671 48.4689 55.7095 49.403 59.3125H84.175C87.9387 59.3125 91 56.1401 91 52.2421V7.07045C91 3.17236 87.9387 0 84.175 0Z" fill="black"/>
</g>
<defs>
<clipPath id="clip0">
<rect width="91" height="73" fill="white"/>
</clipPath>
</defs>
</svg>
