<svg width="28" height="73" viewBox="0 0 28 73" fill="none" xmlns="http://www.w3.org/2000/svg">
<g clip-path="url(#clip0)">
<path d="M13.6875 0C18.7271 0 22.8125 4.08543 22.8125 9.125C22.8125 14.1646 18.7271 18.25 13.6875 18.25C8.64793 18.25 4.5625 14.1646 4.5625 9.125C4.5625 4.08543 8.64793 0 13.6875 0ZM20.5312 20.5312H18.9116C15.6735 22.0202 11.8411 22.0845 8.46344 20.5312H6.84375C3.064 20.5312 0 23.5953 0 27.375V46.7656C0 48.6555 1.532 50.1875 3.42188 50.1875H5.70312V69.5781C5.70312 71.468 7.23513 73 9.125 73H18.25C20.1399 73 21.6719 71.468 21.6719 69.5781V50.1875H23.9531C25.843 50.1875 27.375 48.6555 27.375 46.7656V27.375C27.375 23.5953 24.311 20.5312 20.5312 20.5312Z" fill="black"/>
</g>
<defs>
<clipPath id="clip0">
<rect width="27.375" height="73" fill="white"/>
</clipPath>
</defs>
</svg>
