<svg width="91" height="73" viewBox="0 0 91 73" fill="none" xmlns="http://www.w3.org/2000/svg">
<path d="M86.8055 53.2244C87.1752 51.2141 87.1752 49.1609 86.8055 47.1506L90.4739 45.0262C90.9005 44.7838 91.0853 44.2848 90.9431 43.8143C89.9905 40.7346 88.3553 37.94 86.2225 35.6303C85.8955 35.2738 85.3694 35.1883 84.9428 35.4307L81.2744 37.5551C79.7245 36.2291 77.9472 35.2025 76.0277 34.5182V30.2693C76.0277 29.7846 75.6864 29.3568 75.2172 29.257C72.0464 28.5441 68.8187 28.5727 65.8044 29.257C65.3352 29.3568 64.9939 29.7846 64.9939 30.2693V34.5182C63.0744 35.2025 61.297 36.2291 59.7472 37.5551L56.0788 35.4307C55.6664 35.1883 55.1261 35.2738 54.7991 35.6303C52.6663 37.94 51.0311 40.7346 50.0784 43.8143C49.9363 44.2848 50.1353 44.7838 50.5477 45.0262L54.2161 47.1506C53.8464 49.1609 53.8464 51.2141 54.2161 53.2244L50.5477 55.3488C50.1211 55.5912 49.9363 56.0902 50.0784 56.5607C51.0311 59.6404 52.6663 62.4207 54.7991 64.7447C55.1261 65.1012 55.6522 65.1867 56.0788 64.9443L59.7472 62.8199C61.297 64.1459 63.0744 65.1725 64.9939 65.8568V70.1057C64.9939 70.5904 65.3352 71.0182 65.8044 71.118C68.9752 71.8309 72.2028 71.8023 75.2172 71.118C75.6864 71.0182 76.0277 70.5904 76.0277 70.1057V65.8568C77.9472 65.1725 79.7245 64.1459 81.2744 62.8199L84.9428 64.9443C85.3552 65.1867 85.8955 65.1012 86.2225 64.7447C88.3553 62.435 89.9905 59.6404 90.9431 56.5607C91.0853 56.0902 90.8863 55.5912 90.4739 55.3488L86.8055 53.2244ZM70.525 57.1025C66.7144 57.1025 63.6289 53.9943 63.6289 50.1875C63.6289 46.3807 66.7286 43.2725 70.525 43.2725C74.3214 43.2725 77.4211 46.3807 77.4211 50.1875C77.4211 53.9943 74.3356 57.1025 70.525 57.1025ZM31.85 36.5C41.9027 36.5 50.05 28.3303 50.05 18.25C50.05 8.16973 41.9027 0 31.85 0C21.7973 0 13.65 8.16973 13.65 18.25C13.65 28.3303 21.7973 36.5 31.85 36.5ZM60.4581 68.7939C60.1311 68.6228 59.8041 68.4232 59.4913 68.2379L58.368 68.8938C57.5148 69.3785 56.548 69.6494 55.5811 69.6494C54.0312 69.6494 52.5383 68.9936 51.4719 67.8529C48.8698 65.0299 46.8792 61.5938 45.7559 57.9295C44.9739 55.4059 46.0261 52.7397 48.3011 51.4137L49.4244 50.7578C49.4102 50.3871 49.4102 50.0164 49.4244 49.6457L48.3011 48.9898C46.0261 47.6781 44.9739 44.9977 45.7559 42.474C45.8839 42.0605 46.0688 41.6471 46.2109 41.2336C45.6706 41.1908 45.1445 41.0625 44.59 41.0625H42.2155C39.0589 42.5168 35.5469 43.3438 31.85 43.3438C28.1531 43.3438 24.6553 42.5168 21.4845 41.0625H19.11C8.55969 41.0625 0 49.6457 0 60.225V66.1562C0 69.9346 3.05703 73 6.825 73H56.875C58.3111 73 59.6477 72.5437 60.7425 71.7881C60.5719 71.2463 60.4581 70.6902 60.4581 70.1057V68.7939Z" fill="black"/>
</svg>
