<svg width="92" height="73" viewBox="0 0 92 73" fill="none" xmlns="http://www.w3.org/2000/svg">
<g clip-path="url(#clip0)">
<path d="M31.9375 36.5C42.0178 36.5 50.1875 28.3303 50.1875 18.25C50.1875 8.16973 42.0178 0 31.9375 0C21.8572 0 13.6875 8.16973 13.6875 18.25C13.6875 28.3303 21.8572 36.5 31.9375 36.5ZM44.7125 41.0625H42.3314C39.1662 42.5168 35.6445 43.3438 31.9375 43.3438C28.2305 43.3438 24.723 42.5168 21.5436 41.0625H19.1625C8.5832 41.0625 0 49.6457 0 60.225V66.1562C0 69.9346 3.06543 73 6.84375 73H46.0385C45.6963 72.0305 45.5537 71.0039 45.6678 69.9631L46.6373 61.2801L46.8084 59.6975L47.9348 58.5711L58.9561 47.5498C55.4629 43.6004 50.4014 41.0625 44.7125 41.0625ZM51.1713 61.7791L50.2018 70.4764C50.0449 71.9307 51.2711 73.1568 52.7111 72.9857L61.3941 72.0162L81.0557 52.3547L70.8328 42.1318L51.1713 61.7791ZM90.252 38.3393L84.8482 32.9355C83.5223 31.6096 81.3551 31.6096 80.0291 32.9355L74.6396 38.325L74.0551 38.9096L84.2922 49.1324L90.252 43.1727C91.5779 41.8324 91.5779 39.6795 90.252 38.3393Z" fill="black"/>
</g>
<defs>
<clipPath id="clip0">
<rect width="91.25" height="73" fill="white"/>
</clipPath>
</defs>
</svg>
